<svg xmlns="http://www.w3.org/2000/svg" version="1.1" xmlns:xlink="http://www.w3.org/1999/xlink" width="95" height="147"><rect width="95" height="147" stroke-width="2" stroke="#d3d3d3" fill="black" rx="7" ry="7"></rect><svg xmlns="http://www.w3.org/2000/svg" version="1.1" xmlns:xlink="http://www.w3.org/1999/xlink" x="27" y="30"><svg width="40" height="40" viewBox="0 0 40 40" fill="none" xmlns="http://www.w3.org/2000/svg">
<path fill-rule="evenodd" clip-rule="evenodd" d="M29.3403 27.7855C29.0203 27.7275 28.6923 27.6888 28.3561 27.6888C25.6972 27.6888 23.4739 29.4594 22.9666 32.0967H16.6027C16.0954 29.4594 13.8721 27.6888 11.2132 27.6888C11.0374 27.6888 10.8638 27.7007 10.6923 27.717L8.66904 21.4862C10.5592 20.6145 11.877 18.7064 11.877 16.491C11.877 15.6224 11.669 14.8031 11.309 14.0717L16.3038 10.4396C17.2818 11.3337 18.5785 11.884 20.0044 11.884C21.44 11.884 22.7446 11.3262 23.7249 10.4216L28.7117 14.0475C28.3442 14.7851 28.1319 15.6132 28.1319 16.4915C28.1319 18.7222 29.4677 20.6431 31.3789 21.506L29.3403 27.7855ZM31.6567 33.1948C31.6567 35.0172 30.1763 36.4998 28.3561 36.4998C26.5359 36.4998 25.055 35.0172 25.055 33.1948C25.055 31.3728 26.5359 29.8901 28.3561 29.8901C30.1763 29.8901 31.6567 31.3728 31.6567 33.1948V33.1948ZM14.5143 33.1948C14.5143 35.0172 13.0334 36.4998 11.2132 36.4998C9.393 36.4998 7.91212 35.0172 7.91212 33.1948C7.91212 31.3728 9.393 29.8901 11.2132 29.8901C13.0334 29.8901 14.5143 31.3728 14.5143 33.1948V33.1948ZM9.67915 16.4915C9.67915 18.3139 8.19827 19.7965 6.37805 19.7965C4.55783 19.7965 3.07695 18.3139 3.07695 16.4915C3.07695 14.6695 4.55783 13.1868 6.37805 13.1868C8.19827 13.1868 9.67915 14.6695 9.67915 16.4915V16.4915ZM16.7033 6.38157C16.7033 4.55959 18.1842 3.07695 20.0044 3.07695C21.8246 3.07695 23.3055 4.55959 23.3055 6.38157C23.3055 8.20399 21.8246 9.68662 20.0044 9.68662C18.1842 9.68662 16.7033 8.20399 16.7033 6.38157V6.38157ZM33.6304 19.7965C31.8106 19.7965 30.3297 18.3139 30.3297 16.4915C30.3297 14.6695 31.8106 13.1868 33.6304 13.1868C35.4506 13.1868 36.9315 14.6695 36.9315 16.4915C36.9315 18.3139 35.4506 19.7965 33.6304 19.7965V19.7965ZM33.6304 10.989C32.269 10.989 31.0242 11.4897 30.0629 12.3126L25.0128 8.64047C25.3249 7.95036 25.5033 7.18728 25.5033 6.38157C25.5033 3.34772 23.0365 0.87915 20.0044 0.87915C16.9723 0.87915 14.5055 3.34772 14.5055 6.38157C14.5055 7.19695 14.6884 7.96838 15.0075 8.66508L9.96574 12.331C9.00179 11.4972 7.74904 10.989 6.37805 10.989C3.34596 10.989 0.87915 13.4576 0.87915 16.4915C0.87915 19.5257 3.34596 21.9943 6.37805 21.9943C6.42596 21.9943 6.47256 21.9882 6.52047 21.9868L8.58948 28.36C6.87827 29.2941 5.71432 31.1108 5.71432 33.1948C5.71432 36.229 8.18113 38.6937 11.2132 38.6937C13.8664 38.6937 16.0866 36.9319 16.6 34.2945H22.9688C23.4822 36.9319 25.7029 38.6937 28.3561 38.6937C31.3882 38.6937 33.8545 36.2273 33.8545 33.193C33.8545 31.2783 32.8712 29.5917 31.3842 28.6057L33.5328 21.9886C33.5653 21.9895 33.5974 21.9939 33.6304 21.9939C36.6625 21.9939 39.1293 19.5257 39.1293 16.4915C39.1293 13.4572 36.6625 10.989 33.6304 10.989V10.989Z" fill="#8148FD"></path>
</svg></svg><defs><linearGradient x1="0%" y1="0%" x2="100%" y2="100%" id="goldGradient"><stop stop-color="#ad7615" offset="0"></stop><stop stop-color="#fff700" offset="0.5"></stop><stop stop-color="#ad7615" offset="1"></stop><animate attributeName="x1" from="50%" to="0%" dur="4s" repeatCount="indefinite"></animate><animate attributeName="y1" from="50%" to="0%" dur="4s" repeatCount="indefinite"></animate></linearGradient><linearGradient x1="0%" y1="0%" x2="100%" y2="100%" id="silverGradient"><stop stop-color="#838280" offset="0"></stop><stop stop-color="#e0e0e0" offset="0.5"></stop><stop stop-color="#838280" offset="1"></stop><animate attributeName="x1" from="50%" to="0%" dur="4s" repeatCount="indefinite"></animate><animate attributeName="y1" from="50%" to="0%" dur="4s" repeatCount="indefinite"></animate></linearGradient><linearGradient x1="0%" y1="0%" x2="100%" y2="100%" id="bronzeGradient"><stop stop-color="#8e5b3d" offset="0"></stop><stop stop-color="#e9b582" offset="0.5"></stop><stop stop-color="#8e5b3d" offset="1"></stop><animate attributeName="x1" from="50%" to="0%" dur="4s" repeatCount="indefinite"></animate><animate attributeName="y1" from="50%" to="0%" dur="4s" repeatCount="indefinite"></animate></linearGradient></defs><circle r="8" cx="24" cy="90" fill="url(#goldGradient)"></circle><circle r="8" cx="47" cy="90" fill="url(#silverGradient)"></circle><circle r="8" cx="70" cy="90" fill="url(#bronzeGradient)"></circle><text x="19" y="18" font-family="'Ubuntu','Helvetica', 'Arial', sans-serif" font-weight="bold" font-size="13" fill="white">Datasets</text><text x="20.5" y="111" font-family="'Ubuntu', 'Helvetica', 'Arial', sans-serif" font-size="13" fill="#AD7615">0</text><text x="43.5" y="111" font-family="'Ubuntu', 'Helvetica', 'Arial', sans-serif" font-size="13" fill="#838280">4</text><text x="66.5" y="111" font-family="'Ubuntu', 'Helvetica', 'Arial', sans-serif" font-size="13" fill="#8E5B3D">9</text><text x="29" y="135" font-family="'Ubuntu', 'Helvetica', 'Arial', sans-serif" font-weight="bold" font-size="14" fill="white">682nd</text></svg>